<?xml version="1.0" encoding="UTF-8"?>
<svg xmlns="http://www.w3.org/2000/svg" id="Layer_1" data-name="Layer 1" viewBox="0 0 512 512" width="512" height="512"><path d="M76.593,494H394.729C420.467,494,441,472.926,441,447.188V64.812C441,39.074,420.467,18,394.729,18H76.593C73.279,18,71,20.82,71,24.134V487.866C71,491.18,73.279,494,76.593,494ZM83,30h30V150a6,6,0,0,0,12,0V30H394.729C413.851,30,429,45.69,429,64.812V447.188C429,466.31,413.851,482,394.729,482H125V184a6,6,0,0,0-12,0V482H83Z"/><path d="M151,66.333a6,6,0,0,0,6-6v-4.3a6,6,0,0,0-12,0v4.3A6,6,0,0,0,151,66.333Z"/><path d="M151,160.333a6,6,0,0,0,6-6v-75a6,6,0,0,0-12,0v75A6,6,0,0,0,151,160.333Z"/><path d="M150.166,252.66a17.123,17.123,0,0,0,12.568,16.449l.417,2.394A27.711,27.711,0,0,0,190.83,295H356.394a27.792,27.792,0,0,0,27.578-22.972l.541-2.988a17.011,17.011,0,0,0-4.165-33.448c-3.227-23.154-14.918-44.442-33.4-60.429A109.74,109.74,0,0,0,291,149.736V135.845a22.935,22.935,0,0,0,4.984-14.069,22.387,22.387,0,0,0-44.773,0A22.776,22.776,0,0,0,256,135.845v13.891c-20,3.123-40.083,11.862-55.758,25.42a97.537,97.537,0,0,0-33.334,60.436A17.046,17.046,0,0,0,150.166,252.66Zm221.987,17.423A15.7,15.7,0,0,1,356.394,283H190.83a15.645,15.645,0,0,1-15.765-13H372.223ZM273.685,111.518a10.258,10.258,0,1,1-10.258,10.258A10.269,10.269,0,0,1,273.685,111.518ZM279,143.407v5.145c-2-.078-3.75-.12-5.5-.12s-3.5.042-5.5.12v-5.145a24.436,24.436,0,0,0,11,0Zm-70.682,41.035a101.238,101.238,0,0,1,130.74.06c15.81,13.678,25.983,31.5,29.134,51.5H179.177C182.329,216,192.505,198.121,208.318,184.442ZM167.3,248h212.76a5,5,0,1,1,0,10H167.3a5,5,0,1,1,0-10Z"/><path d="M174,353H274a6,6,0,0,0,0-12H174a6,6,0,0,0,0,12Z"/><path d="M374,367H174a6,6,0,0,0,0,12H374a6,6,0,0,0,0-12Z"/><path d="M374,392H174a6,6,0,0,0,0,12H374a6,6,0,0,0,0-12Z"/><path d="M374,418H174a6,6,0,0,0,0,12H374a6,6,0,0,0,0-12Z"/></svg>
